<?xml version="1.0" encoding="utf-8"?>
<!-- Generator: Adobe Illustrator 16.0.0, SVG Export Plug-In . SVG Version: 6.00 Build 0)  -->
<!DOCTYPE svg PUBLIC "-//W3C//DTD SVG 1.1//EN" "http://www.w3.org/Graphics/SVG/1.1/DTD/svg11.dtd">
<svg version="1.1" id="Layer_1" xmlns="http://www.w3.org/2000/svg" xmlns:xlink="http://www.w3.org/1999/xlink" x="0px" y="0px"
	 width="48px" height="48px" viewBox="0 0 48 48" enable-background="new 0 0 48 48" xml:space="preserve">
<g>
	<path d="M38.787,1.795H9.224C4.704,1.795,1,5.471,1,9.991v20.632c0,4.519,3.704,8.164,8.224,8.164h9.58v4.165h-4.611
		c-1.84,0-3.332,1.47-3.332,3.348h26.291c0-1.878-1.492-3.348-3.333-3.348h-4.563v-4.165h9.531c4.52,0,8.189-3.645,8.189-8.164
		V9.991C46.976,5.471,43.307,1.795,38.787,1.795z M24.006,35.886c-1.367,0-2.475-1.107-2.475-2.474s1.108-2.474,2.475-2.474
		c1.366,0,2.474,1.107,2.474,2.474S25.372,35.886,24.006,35.886z M42.812,25.395c0,1.984-1.609,3.593-3.593,3.593H8.759
		c-1.984,0-3.593-1.609-3.593-3.593V9.991c0-2.216,1.842-4.031,4.059-4.031h29.563c2.216,0,4.024,1.815,4.024,4.031V25.395z"/>
	<path d="M24.944,18.219l0.833-0.245c0.504-0.149,0.859-0.603,0.882-1.127c0.022-0.526-0.292-1.008-0.781-1.199l-7.009-2.741
		c-0.456-0.178-0.973-0.07-1.318,0.276c-0.346,0.346-0.454,0.863-0.276,1.318l2.74,7.009c0.192,0.49,0.674,0.804,1.2,0.781
		c0.525-0.022,0.978-0.377,1.127-0.881l0.246-0.833l3.219,3.219c0.23,0.231,0.544,0.361,0.871,0.361c0.326,0,0.639-0.13,0.87-0.361
		l0.617-0.617c0.48-0.481,0.48-1.259,0-1.74L24.944,18.219z"/>
</g>
</svg>
