<?xml version="1.0" encoding="utf-8"?>
<!-- Generator: Adobe Illustrator 16.0.0, SVG Export Plug-In . SVG Version: 6.00 Build 0)  -->
<!DOCTYPE svg PUBLIC "-//W3C//DTD SVG 1.1//EN" "http://www.w3.org/Graphics/SVG/1.1/DTD/svg11.dtd">
<svg version="1.1" id="Layer_10" xmlns="http://www.w3.org/2000/svg" xmlns:xlink="http://www.w3.org/1999/xlink" x="0px" y="0px"
	 width="100px" height="100px" viewBox="0 0 100 100" enable-background="new 0 0 100 100" xml:space="preserve">
<path d="M10.468,60.254h54.897v7.594H26.211h-0.785c-1.191-3.271-4.331-5.615-8.01-5.615c-3.624,0-6.725,2.275-7.956,5.471
	c-1.517-0.438-2.627-1.833-2.627-3.491v-0.323C6.833,61.881,8.46,60.254,10.468,60.254z M23.476,69.908
	c0,3.497-2.845,6.342-6.343,6.342c-3.496,0-6.342-2.845-6.342-6.342s2.846-6.343,6.342-6.343
	C20.631,63.565,23.476,66.411,23.476,69.908z M21.536,69.908c0-2.428-1.975-4.403-4.403-4.403c-2.428,0-4.402,1.976-4.402,4.403
	s1.975,4.402,4.402,4.402C19.562,74.311,21.536,72.336,21.536,69.908z M87.583,69.908c0,3.497-2.846,6.342-6.343,6.342
	s-6.342-2.845-6.342-6.342s2.845-6.343,6.342-6.343S87.583,66.411,87.583,69.908z M85.644,69.908c0-2.428-1.976-4.403-4.403-4.403
	s-4.402,1.976-4.402,4.403s1.975,4.402,4.402,4.402S85.644,72.336,85.644,69.908z M96.833,51.69v14.34
	c0,0.669-0.543,1.212-1.212,1.212h-6.336c-1.342-2.951-4.314-5.01-7.762-5.01s-6.421,2.059-7.763,5.01h-4.275
	c-0.669,0-1.212-0.543-1.212-1.212V37.229c0-0.67,0.543-1.212,1.212-1.212h15.956c0.669,0,1.687,0.223,2.424,1.212L96.833,51.69z
	 M91.178,48.539l-5.453-9.049c-0.421-0.779-0.939-1.211-2.788-1.211H73.04c-0.669,0-1.212,0.542-1.212,1.211v9.049
	c0,0.67,0.543,1.212,1.212,1.212h16.926C90.635,49.751,91.178,49.209,91.178,48.539z M95.903,62.313
	c0-0.624-0.506-1.131-1.131-1.131c-0.624,0-1.131,0.507-1.131,1.131v2.142c0,0.625,0.507,1.131,1.131,1.131
	c0.625,0,1.131-0.506,1.131-1.131V62.313z M3.167,58.084h62.198V23.75H3.167V58.084z"/>
</svg>
